<svg width="97" height="97" viewBox="0 0 97 97" fill="none" xmlns="http://www.w3.org/2000/svg">
<path d="M91.0992 25.9475C90.6191 24.0293 89.6413 22.2719 88.2646 20.8526C86.8879 19.4333 85.161 18.4024 83.2583 17.8641C76.3067 16.1666 48.5 16.1666 48.5 16.1666C48.5 16.1666 20.6933 16.1666 13.7417 18.0258C11.8391 18.5641 10.1122 19.5949 8.73545 21.0142C7.35874 22.4335 6.38095 24.191 5.90084 26.1091C4.62859 33.1641 4.00626 40.3209 4.04168 47.4895C3.99633 54.7122 4.6187 61.9236 5.90084 69.0316C6.43014 70.8902 7.42983 72.5808 8.80334 73.9401C10.1769 75.2995 11.8777 76.2816 13.7417 76.7916C20.6933 78.6508 48.5 78.6508 48.5 78.6508C48.5 78.6508 76.3067 78.6508 83.2583 76.7916C85.161 76.2533 86.8879 75.2225 88.2646 73.8032C89.6413 72.3839 90.6191 70.6264 91.0992 68.7083C92.3616 61.7065 92.9839 54.6042 92.9583 47.4895C93.0037 40.2669 92.3813 33.0555 91.0992 25.9475Z" stroke="#1E1E1E" stroke-width="3.5" stroke-linecap="round" stroke-linejoin="round"/>
<path d="M39.4063 60.7058L62.6458 47.4895L39.4063 34.2733V60.7058Z" stroke="#1E1E1E" stroke-width="3.5" stroke-linecap="round" stroke-linejoin="round"/>
</svg>
