<svg width="78" height="78" viewBox="0 0 78 78" fill="none" xmlns="http://www.w3.org/2000/svg">
<path d="M56.875 21.125H56.9075M22.75 6.5H55.25C64.2246 6.5 71.5 13.7754 71.5 22.75V55.25C71.5 64.2246 64.2246 71.5 55.25 71.5H22.75C13.7754 71.5 6.5 64.2246 6.5 55.25V22.75C6.5 13.7754 13.7754 6.5 22.75 6.5ZM52 36.9525C52.4011 39.6573 51.9391 42.4197 50.6797 44.8468C49.4203 47.2739 47.4277 49.2421 44.9853 50.4714C42.5428 51.7008 39.775 52.1287 37.0753 51.6943C34.3757 51.2599 31.8817 49.9853 29.9482 48.0518C28.0147 46.1183 26.7401 43.6243 26.3057 40.9247C25.8713 38.225 26.2992 35.4572 27.5286 33.0147C28.7579 30.5723 30.7261 28.5797 33.1532 27.3203C35.5803 26.0609 38.3427 25.5989 41.0475 26C43.8065 26.4091 46.3608 27.6948 48.333 29.667C50.3052 31.6392 51.5909 34.1935 52 36.9525Z" stroke="#1E1E1E" stroke-width="2" stroke-linecap="round" stroke-linejoin="round"/>
</svg>
